<svg id="Capa_1" enable-background="new 0 0 512.002 512.002" height="512" viewBox="0 0 512.002 512.002" width="512" xmlns="http://www.w3.org/2000/svg"><g><g><g><g><path d="m134.533 387.502h55.225v78h-55.225z" fill="#9b8e99"/><path d="m159.757 387.502h30v78h-30z" fill="#8b8089"/><path d="m283.47 402.502h-242.65c-17.208 0-30.89-14.445-29.956-31.628l11.739-216c.865-15.912 14.02-28.372 29.956-28.372h219.172c15.936 0 29.091 12.46 29.956 28.372l11.739 216c.934 17.183-12.748 31.628-29.956 31.628z" fill="#b3dafe"/><path d="m313.426 370.874-11.739-216c-.865-15.913-14.02-28.372-29.956-28.372h-30c15.936 0 29.091 12.459 29.956 28.372l11.739 216c.934 17.183-12.748 31.628-29.956 31.628h30c17.208 0 30.89-14.445 29.956-31.628z" fill="#8ac9fe"/><path d="m248.645 504.502h-173l10.069-26.18c2.971-7.724 10.392-12.82 18.667-12.82h115.528c8.275 0 15.696 5.097 18.667 12.82z" fill="#baafb9"/><path d="m238.576 478.322c-2.971-7.724-10.392-12.82-18.667-12.82h-30c8.275 0 15.696 5.097 18.667 12.82l10.069 26.18h30z" fill="#9b8e99"/></g><g><path d="m383.562 249.38c-14.562 0-23.299-28.756-35.975-34.026-13.125-5.456-39.604 8.47-49.506-1.432s4.024-36.381-1.432-49.506c-5.269-12.677-34.026-21.414-34.026-35.975 0-14.562 28.756-23.299 34.026-35.975 5.456-13.125-8.47-39.604 1.432-49.506s36.381 4.024 49.506-1.432c12.676-5.27 21.413-34.026 35.975-34.026s23.299 28.756 35.975 34.026c13.125 5.456 39.604-8.47 49.506 1.432s-4.024 36.381 1.432 49.506c5.269 12.677 34.026 21.414 34.026 35.975 0 14.562-28.756 23.299-34.026 35.975-5.456 13.125 8.47 39.604-1.432 49.506s-36.381-4.024-49.506 1.432c-12.677 5.27-21.414 34.026-35.975 34.026z" fill="#fedf30"/><circle cx="383.562" cy="128.441" fill="#fea95c" r="47.032"/></g></g><path d="m470.475 92.466c-5.456-13.125 8.47-39.604-1.432-49.506s-36.381 4.023-49.506-1.432c-12.677-5.27-21.414-34.026-35.975-34.026-5.555 0-10.261 4.189-14.663 9.658 41.379 18.687 70.176 60.314 70.176 108.667 0 49.509-30.192 91.963-73.167 109.965 5.275 7.262 10.823 13.588 17.653 13.588 14.562 0 23.298-28.756 35.975-34.025 13.125-5.456 39.604 8.47 49.506-1.432s-4.023-36.381 1.432-49.506c5.269-12.677 34.026-21.414 34.026-35.976.001-14.562-28.755-23.298-34.025-35.975z" fill="#fac600"/></g><path d="m383.562 73.907c-30.068 0-54.531 24.463-54.531 54.532s24.463 54.532 54.531 54.532c30.069 0 54.532-24.463 54.532-54.532s-24.463-54.532-54.532-54.532zm0 94.064c-21.798 0-39.531-17.734-39.531-39.532s17.733-39.532 39.531-39.532 39.532 17.734 39.532 39.532-17.735 39.532-39.532 39.532zm107.361-66.374c-5.644-3.959-12.04-8.446-13.521-12.012-1.618-3.893-.265-11.869.929-18.906 1.975-11.638 4.213-24.828-3.982-33.024-8.196-8.197-21.388-5.958-33.026-3.984-7.035 1.194-15.012 2.547-18.905.93-3.565-1.482-8.053-7.878-12.011-13.522-6.932-9.881-14.788-21.079-26.845-21.079s-19.911 11.198-26.842 21.078c-3.959 5.644-8.446 12.04-12.012 13.522-3.891 1.619-11.867.265-18.905-.929-11.64-1.975-24.83-4.212-33.024 3.984-8.197 8.196-5.959 21.387-3.984 33.024 1.193 7.038 2.547 15.014.929 18.906-1.481 3.565-7.878 8.053-13.521 12.012-7.038 4.937-14.74 10.344-18.592 17.403h-205.05c-19.912 0-36.361 15.576-37.449 35.463l-11.74 216.001c-.563 10.388 3.068 20.27 10.225 27.824 7.154 7.553 16.823 11.712 27.224 11.712h86.211v48h-22.651c-11.297 0-21.611 7.084-25.667 17.628l-8.22 21.372h-62.993c-4.143 0-7.5 3.358-7.5 7.5s3.357 7.5 7.5 7.5h68.099c.014 0 .029.002.043.002.009 0 .017-.002.026-.002h241.121c4.143 0 7.5-3.358 7.5-7.5s-3.357-7.5-7.5-7.5h-62.993l-8.219-21.372c-4.057-10.544-14.372-17.628-25.669-17.628h-22.652v-48h86.214c10.405 0 20.075-4.161 27.229-11.717 7.153-7.555 10.779-17.436 10.211-27.819l-6.861-126.39c-.225-4.137-3.813-7.312-7.896-7.082-4.137.224-7.308 3.759-7.083 7.896l.657 12.112h-53.98l-2.935-54h22.117c4.143 0 7.5-3.358 7.5-7.5s-3.357-7.5-7.5-7.5h-22.932l-2.935-54h16.898c2.773 9.024 11.966 15.478 20.239 21.282 5.644 3.959 12.04 8.446 13.521 12.011 1.618 3.893.265 11.869-.93 18.906-1.975 11.638-4.212 24.829 3.984 33.025 8.194 8.195 21.384 5.958 33.024 3.984 7.039-1.194 15.015-2.546 18.906-.93 3.564 1.482 8.052 7.878 12.011 13.522 6.931 9.88 14.786 21.079 26.843 21.079s19.912-11.198 26.843-21.078c3.959-5.644 8.446-12.04 12.012-13.522 3.894-1.618 11.868-.265 18.905.929 11.637 1.974 24.827 4.213 33.025-3.983 8.196-8.196 5.958-21.387 3.983-33.025-1.193-7.037-2.547-15.013-.929-18.906 1.481-3.565 7.878-8.053 13.521-12.011 9.88-6.931 21.078-14.787 21.078-26.843s-11.194-19.913-21.074-26.843zm-184.991 269.683c.342 6.23-1.834 12.158-6.125 16.69-4.292 4.533-10.094 7.03-16.336 7.03h-30.222l-2.935-54h53.974zm-5.39-99.28 2.931 54h-53.975l-2.935-54zm-130.897-138h54.396l2.935 54h-57.331zm0 69h58.146l2.935 54h-61.081zm0 69h61.896l2.935 54h-64.831zm-69.397-138h54.396v54h-57.331zm82.009 276v48h-40.225v-48zm-85.759-207h58.146v54h-61.081zm-3.75 69h61.896v54h-64.831zm-21.707 123h-30.22c-6.241 0-12.042-2.496-16.335-7.028-4.295-4.533-6.474-10.463-6.136-16.695l1.646-30.277h53.979zm3.75-69h-53.98l2.935-54h53.979zm3.75-69h-53.979l2.935-54h53.979zm3.75-69h-53.979l1.778-32.72c.652-11.933 10.522-21.28 22.471-21.28h32.665zm3.772 207 2.935-54h65.646v54zm133.846 78c5.135 0 9.823 3.22 11.667 8.013l6.149 15.987h-151.16l6.149-15.987c1.844-4.792 6.532-8.013 11.667-8.013zm-50.264-78v-54h65.646l2.935 54zm312.664-251.998c-7.672 5.381-15.604 10.947-18.759 18.533-3.279 7.891-1.616 17.693-.008 27.172 1.23 7.255 2.916 17.191.198 19.91-2.72 2.718-12.654 1.033-19.909-.199-9.48-1.608-19.284-3.271-27.173.008-7.587 3.153-13.151 11.087-18.534 18.759-4.592 6.546-10.307 14.692-14.563 14.692s-9.971-8.147-14.563-14.693c-5.381-7.672-10.946-15.605-18.532-18.759-3.328-1.383-6.994-1.887-10.833-1.887-5.267 0-10.858.949-16.34 1.879-7.256 1.231-17.189 2.917-19.909.198-2.719-2.718-1.032-12.655.198-19.91 1.608-9.479 3.271-19.282-.008-27.172-3.154-7.586-11.087-13.151-18.759-18.533-6.546-4.592-14.692-10.307-14.692-14.563s8.146-9.971 14.692-14.563c7.672-5.382 15.604-10.947 18.759-18.534 3.279-7.891 1.616-17.693.008-27.173-1.23-7.255-2.916-17.191-.197-19.909s12.654-1.032 19.908.198c9.479 1.609 19.281 3.272 27.173-.008 7.587-3.154 13.151-11.087 18.533-18.759 4.592-6.543 10.307-14.689 14.563-14.689 4.257 0 9.972 8.146 14.563 14.693 5.382 7.672 10.946 15.605 18.533 18.758 7.889 3.28 17.692 1.617 27.173.008 7.255-1.23 17.19-2.917 19.909-.198s1.032 12.654-.198 19.908c-1.608 9.48-3.272 19.283.008 27.173 3.154 7.587 11.087 13.152 18.759 18.534 6.546 4.592 14.692 10.306 14.692 14.563s-8.147 9.971-14.692 14.563z"/></g></svg>