<svg height="30pt" viewBox="-57 1 511 511.99988" width="511pt" xmlns="http://www.w3.org/2000/svg"><path d="m397.984375 313.257812c0 109.761719-88.980469 198.742188-198.742187 198.742188-109.761719 0-198.742188-88.980469-198.742188-198.742188 0-157.378906 171.988281-294.027343 195.976562-312.324218 1.632813-1.246094 3.894532-1.246094 5.53125 0 23.988282 18.292968 195.976563 154.945312 195.976563 312.324218zm0 0" fill="#40c1fa"/><path d="m196.476562.933594-.054687.042968c58.125 52.597657 158.191406 160.578126 158.191406 280.625 0 109.761719-88.980469 198.742188-198.742187 198.742188-34.125 0-66.238282-8.605469-94.296875-23.757812 35.714843 34.316406 84.226562 55.414062 137.667969 55.414062 109.761718 0 198.742187-88.980469 198.742187-198.742188 0-157.378906-171.988281-294.027343-195.976563-312.324218-1.636718-1.246094-3.898437-1.246094-5.53125 0zm0 0" fill="#07a9f0"/><path d="m339.425781 364.359375c-.855469 0-1.730469-.148437-2.582031-.460937-3.890625-1.425782-5.886719-5.734376-4.457031-9.625 2.414062-6.585938 4.484375-13.378907 6.152343-20.191407.988282-4.023437 5.050782-6.484375 9.070313-5.5 4.023437.984375 6.488281 5.046875 5.5 9.070313-1.800781 7.351562-4.035156 14.679687-6.640625 21.789062-1.113281 3.035156-3.984375 4.917969-7.042969 4.917969zm0 0" fill="#72d1fb"/><path d="m273.589844 453.742188c-2.25 0-4.480469-1.011719-5.957032-2.9375-2.519531-3.289063-1.898437-7.996094 1.390626-10.515626 23.367187-17.914062 42.558593-41.300781 55.503906-67.640624 1.824218-3.71875 6.320312-5.25 10.039062-3.421876 3.714844 1.824219 5.25 6.320313 3.421875 10.039063-13.957031 28.398437-34.648437 53.617187-59.839843 72.925781-1.359376 1.046875-2.964844 1.550782-4.558594 1.550782zm0 0" fill="#72d1fb"/><path d="m251.257812 158.003906h-70.816406c-2.242187 0-4.304687 1.222656-5.378906 3.191406l-61.765625 113.035157c-2.234375 4.089843.726563 9.078125 5.386719 9.070312l58.214844-.089843c4.378906-.007813 7.351562 4.441406 5.671874 8.484374l-31.234374 75.171876c-2.570313 6.1875 5.230468 11.421874 9.980468 6.699218l121.390625-120.664062c3.882813-3.855469 1.152344-10.476563-4.320312-10.476563h-60.390625c-4.890625 0-7.8125-5.449219-5.101563-9.523437l43.46875-65.375c2.710938-4.074219-.210937-9.523438-5.105469-9.523438zm0 0" fill="#ffd508"/><g fill="#eec707"><path d="m278.386719 242.425781h-14.796875c5.46875 0 8.199218 6.621094 4.320312 10.476563l-117.078125 116.375c-.027343 5 6.367188 8.378906 10.484375 4.289062l121.390625-120.664062c3.882813-3.855469 1.148438-10.476563-4.320312-10.476563zm0 0"/><path d="m241.566406 167.527344-43.472656 65.375c-2.707031 4.074218.214844 9.523437 5.105469 9.523437h14.796875c-4.890625 0-7.8125-5.449219-5.101563-9.523437l43.46875-65.375c2.710938-4.074219-.210937-9.523438-5.105469-9.523438h-14.796874c4.894531 0 7.8125 5.449219 5.105468 9.523438zm0 0"/></g></svg>