<svg id="Capa_1" enable-background="new 0 0 512 512" height="100" viewBox="0 0 512 512" width="512" xmlns="http://www.w3.org/2000/svg"><g><g><path clip-rule="evenodd" d="m191.108 97.743c3.41 25.025 5.485 54.111 5.797 85.271h54.392c-.71-31.16-5.627-60.247-13.726-85.271z" fill="#ffda8f" fill-rule="evenodd"/></g><g><path clip-rule="evenodd" d="m117.534 183.014h79.371c-.313-31.16-2.387-60.247-5.797-85.271h-67.777c-3.41 25.024-5.485 54.111-5.797 85.271z" fill="#ffda8f" fill-rule="evenodd"/></g><g><path clip-rule="evenodd" d="m76.867 97.743c-8.099 25.025-13.015 54.111-13.726 85.271h54.392c.313-31.16 2.387-60.247 5.797-85.271z" fill="#ffda8f" fill-rule="evenodd"/></g><g><path clip-rule="evenodd" d="m124.979 262.775c12.959 17.923 23.331 39.625 32.226 66.41 8.895-26.786 19.296-48.487 32.254-66.41z" fill="#ffda8f" fill-rule="evenodd"/></g><g><path clip-rule="evenodd" d="m124.979 262.775h64.48c1.506-2.102 3.069-4.175 4.689-6.164v-.028c1.79-20.338 2.785-42.522 2.785-65.757 0-2.613-.028-5.226-.028-7.811h-79.371c-.028 2.585-.028 5.198-.028 7.811 0 23.235.995 45.419 2.785 65.757v.028c1.619 1.988 3.153 4.062 4.688 6.164z" fill="#ffda8f" fill-rule="evenodd"/></g><g><path clip-rule="evenodd" d="m196.933 190.825c0 23.235-.995 45.419-2.785 65.757 15.033-18.861 33.42-33.29 56.609-45.022.426-6.789.625-13.72.625-20.736 0-2.613-.028-5.226-.085-7.811h-54.392c0 2.586.028 5.199.028 7.812z" fill="#ffda8f" fill-rule="evenodd"/></g><g><path clip-rule="evenodd" d="m63.682 211.561c23.189 11.731 41.575 26.161 56.609 45.022-1.79-20.338-2.785-42.522-2.785-65.757 0-2.613 0-5.226.028-7.811h-54.392c-.057 2.585-.114 5.198-.114 7.811 0 7.015.227 13.946.654 20.735z" fill="#ffda8f" fill-rule="evenodd"/></g><g><path clip-rule="evenodd" d="m76.867 97.743h46.463c6.991-51.129 19.552-85.243 33.874-85.243-33.987 0-63.769 34.114-80.337 85.243z" fill="#ffda8f" fill-rule="evenodd"/></g><g><path clip-rule="evenodd" d="m157.205 12.5c-14.323 0-26.883 34.114-33.874 85.243h67.777c-6.991-51.129-19.552-85.243-33.903-85.243z" fill="#ffda8f" fill-rule="evenodd"/></g><g><path clip-rule="evenodd" d="m157.205 12.5c14.351 0 26.912 34.114 33.903 85.243h46.463c-16.568-51.129-46.35-85.243-80.366-85.243z" fill="#ffda8f" fill-rule="evenodd"/></g><g><path clip-rule="evenodd" d="m10 191.081c47.259 62.349 47.089 181.705 147.205 182.444 100.145-.739 99.974-120.095 147.233-182.444-20.376 5.965-38.108 12.612-53.682 20.48-23.189 11.731-41.575 26.161-56.609 45.022v.028c-1.62 1.988-3.183 4.062-4.689 6.164-12.959 17.923-23.36 39.625-32.254 66.41-8.895-26.786-19.267-48.487-32.226-66.41-1.535-2.102-3.069-4.175-4.689-6.164 0 0 0 0 0-.028-15.033-18.861-33.42-33.29-56.609-45.022-15.572-7.868-33.304-14.515-53.68-20.48z" fill="#d4eb88" fill-rule="evenodd"/></g><g><path clip-rule="evenodd" d="m116.397 392.272c0 14.174 11.623 25.792 25.803 25.792h25.008 5.03c14.181 0 25.803-11.618 25.803-25.792v-27.411c-11.481 5.425-24.866 8.55-40.837 8.663-15.942-.114-29.356-3.238-40.808-8.663v27.411z" fill="#d4eb88" fill-rule="evenodd"/></g><g><path clip-rule="evenodd" d="m311.969 286.066c0 52.435 42.542 94.957 95.03 94.957 1.137 0 2.302 0 3.439-.057 50.897-1.818 91.563-43.63 91.563-94.9 0-52.464-42.542-94.986-95.001-94.986-52.489.001-95.031 42.523-95.031 94.986z" fill="#ffda8f" fill-rule="evenodd"/></g><g><path d="m426.92 276.066h-23.72l17.581-35.308c2.462-4.944.45-10.947-4.494-13.409s-10.947-.449-13.408 4.494l-24.78 49.765c-3.257 6.539 1.689 14.458 8.979 14.458h23.688l-17.576 35.277c-2.463 4.943-.452 10.947 4.491 13.41 1.432.713 2.953 1.052 4.451 1.052 3.673 0 7.209-2.032 8.958-5.543l24.78-49.737c.128-.256.244-.532.348-.798 2.54-6.436-2.379-13.661-9.298-13.661z"/><path d="m512 286.066c0-57.889-47.104-104.985-105.001-104.985-57.914 0-105.03 47.096-105.03 104.985 0 55.688 43.626 101.376 98.518 104.749l.32 64.176c.053 9.08-3.501 17.684-10.007 24.228-6.591 6.63-15.32 10.281-24.581 10.281h-164.398c-19.087 0-34.616-15.507-34.616-34.567v-26.87h5.033c19.742 0 35.803-16.056 35.803-35.792v-21.36c11.121-6.26 21.069-14.871 29.957-25.902 17.598-21.844 28.931-50.446 39.89-78.107 10.347-26.116 20.119-50.783 34.521-69.781 2.606-3.439 2.713-8.164.263-11.717-2.449-3.552-6.899-5.134-11.044-3.92-14.923 4.373-28.252 9.042-40.281 14.15.021-1.594.036-3.195.036-4.809 0-2.578-.034-5.146-.09-7.708 0-.035.005-.069.005-.104 0-.079-.01-.155-.012-.233-1.049-46.229-11.12-89.544-28.636-122.717-19.602-37.12-46.395-57.563-75.445-57.563-29.039 0-55.829 20.443-75.433 57.562-18.536 35.098-28.744 81.537-28.744 130.763 0 1.593.015 3.194.038 4.798-12.022-5.103-25.342-9.769-40.254-14.139-4.143-1.213-8.596.367-11.045 3.921-2.45 3.554-2.343 8.278.265 11.717 14.417 19.013 24.34 44.088 33.937 68.337 2.032 5.136 7.842 7.651 12.978 5.619 5.135-2.032 7.651-7.843 5.619-12.978-6.255-15.807-13.052-32.982-21.459-48.891 62.276 23.147 92.583 56.793 114.609 123.127 1.357 4.088 5.181 6.848 9.489 6.849h.001c4.307 0 8.131-2.758 9.489-6.846 18.72-56.313 43.411-89.066 88.538-111.84.048-.024.097-.046.144-.071 7.989-4.024 16.605-7.743 25.954-11.218-8.4 15.906-15.292 33.303-22.036 50.325-21.087 53.223-41.007 103.496-102.086 103.989-27.245-.226-47.749-9.827-64.518-30.211-3.508-4.265-9.81-4.878-14.076-1.37-4.265 3.509-4.878 9.811-1.37 14.076 8.683 10.555 18.366 18.831 29.153 24.9v21.353c0 19.735 16.061 35.792 35.803 35.792h5.005v26.87c0 30.088 24.501 54.567 54.616 54.567h164.397c14.624 0 28.392-5.746 38.765-16.18 10.288-10.348 15.907-24.001 15.823-38.437l-.323-64.723c51.552-6.636 91.516-50.787 91.516-104.095zm-373.921-215.362c7.578-36.167 16.351-46.979 19.129-48.156 2.777 1.166 11.554 11.954 19.14 48.12 1.137 5.421 2.187 11.129 3.151 17.076h-44.561c.961-5.935 2.007-11.63 3.141-17.04zm-5.942 37.039h50.163c2.408 20.115 3.915 42.244 4.431 65.271h-59.024c.515-23.025 2.022-45.154 4.43-65.271zm-58.77 97.577c-.184-4.112-.293-8.228-.322-12.307h34.471c.033 12.385.351 24.611.933 36.598-10.263-9.126-21.772-17.126-35.082-24.291zm34.334-32.306h-34.174c1.297-23.397 5.101-45.536 10.858-65.271h27.612c-2.336 20.234-3.796 42.307-4.296 65.271zm6.985-85.271h-23.481c9.48-24.017 22.104-42.97 36.49-54.127-3.044 8.056-5.811 17.692-8.317 28.943-1.747 7.845-3.313 16.276-4.692 25.184zm42.523 212.975c-4.285-10.119-8.905-19.392-13.894-27.944h27.795c-4.99 8.552-9.612 17.825-13.901 27.944zm27.221-47.944h-54.422c-1.597-19.167-2.437-39.24-2.492-59.761h59.406c-.056 20.519-.895 40.592-2.492 59.761zm10.627-190.216c-2.515-11.287-5.293-20.95-8.35-29.021 10.301 7.946 19.901 20.041 28.256 35.865 3.051 5.779 5.853 11.911 8.403 18.341h-23.615c-1.381-8.909-2.947-17.341-4.694-25.185zm35.138 45.185c5.823 20.004 9.465 42.119 10.705 65.271h-34.163c-.5-22.965-1.96-45.038-4.297-65.271zm10.87 97.58c-13.307 7.163-24.813 15.161-35.076 24.285.582-11.986.9-24.212.933-36.595h34.444c-.026 4.193-.129 8.306-.301 12.31zm-98.865 202.74c-8.714 0-15.803-7.084-15.803-15.792v-12.993c9.505 2.749 19.727 4.161 30.731 4.246h.075s.05 0 .075 0c11.014-.081 21.247-1.496 30.763-4.25v12.998c0 8.708-7.089 15.792-15.803 15.792h-30.038zm264.799-37.04c-46.886 0-85.03-38.111-85.03-84.957 0-46.861 38.145-84.985 85.03-84.985 46.87 0 85.001 38.125 85.001 84.985 0 46.846-38.131 84.957-85.001 84.957z"/><path d="m62.971 293.734c-5.523 0-10 4.477-10 10v.028c0 5.523 4.477 9.986 10 9.986s10-4.491 10-10.014-4.477-10-10-10z"/></g></g></svg>