<svg height="512" viewBox="0 0 64 64" width="512" xmlns="http://www.w3.org/2000/svg"><g id="flat"><path d="m3 39h58v22h-58z" fill="#b5554e"/><path d="m51 49a6 6 0 0 0 -4-5.651v-4.349h-4v4.342a6.015 6.015 0 0 0 -3.81 4.183 4.873 4.873 0 0 0 -5.331.614 2.983 2.983 0 0 0 -5.816.439 3.933 3.933 0 0 0 -5.16.944 6.026 6.026 0 0 0 -2.883-2.172v-8.35h-4v8.349a6.009 6.009 0 0 0 -3.648 3.651h38.3a5.971 5.971 0 0 0 .348-2z" fill="#ffd782"/><path d="m18 59a6 6 0 0 0 5.588-3.828 3.981 3.981 0 0 0 6.412-3.172c0-.065-.016-.125-.019-.19a2.828 2.828 0 0 0 2.038 0c0 .065-.019.125-.019.19a5 5 0 0 0 9.607 1.947 5.992 5.992 0 0 0 9.044-2.947h-38.3a5.979 5.979 0 0 0 5.649 8z" fill="#50b4f8"/><g fill="#ceac9a"><path d="m8 44h2v2h-2z"/><path d="m24 42h2v2h-2z"/><path d="m51 56h2v2h-2z"/><path d="m54 52h2v2h-2z"/><path d="m54 43h2v2h-2z"/><path d="m6 52h2v2h-2z"/><path d="m8 56h2v2h-2z"/><path d="m35 42h2v2h-2z"/></g><path d="m12 29h40v10h-40z" fill="#394d5c"/><path d="m25 33h4v6h-4z" fill="#fcf05a"/><path d="m29 33h4v6h-4z" fill="#ffd782"/><path d="m16 32h2v2h-2z" fill="#fcf05a"/><path d="m20 32h2v2h-2z" fill="#fcf05a"/><path d="m36 32h2v2h-2z" fill="#fcf05a"/><path d="m40 32h2v2h-2z" fill="#fcf05a"/><path d="m44 32h2v2h-2z" fill="#fcf05a"/><path d="m26 29h-12l2-10h8z" fill="#50b4f8"/><path d="m50 29h-12l2-10h8z" fill="#50b4f8"/><path d="m38 29h-12l2-10h8z" fill="#50b4f8"/><path d="m18.948 26.316-1.9-.632 1-3a1 1 0 0 1 .952-.684h3v2h-2.279z" fill="#4481c3"/><path d="m30 22h4v2h-4z" fill="#4481c3"/><path d="m45.052 26.316-.773-2.316h-2.279v-2h3a1 1 0 0 1 .948.684l1 3z" fill="#4481c3"/><path d="m25.578 11.043a3.984 3.984 0 1 1 6.922-3.943 3.968 3.968 0 0 1 6.712-.465 4.987 4.987 0 0 1 9.788 1.365 4.944 4.944 0 0 1 -.059.587 3.9 3.9 0 0 1 4.1-.009 4.009 4.009 0 1 1 1.914 3.844 3.989 3.989 0 0 1 -7.955-.422.242.242 0 0 1 0-.025 4.954 4.954 0 0 1 -3 1.025c-.047 0-.091-.013-.137-.014a3.983 3.983 0 0 1 -7.726 0c-.046 0-.09.014-.137.014a3.982 3.982 0 0 1 -3.5-2.1 3.982 3.982 0 0 1 -3.5 2.1c-.065 0-.125-.016-.19-.019a2.969 2.969 0 0 1 .19 1.019 3 3 0 1 1 -3.422-2.957z" fill="#aabece"/><path d="m40 17v-2a3 3 0 0 0 1.984-5.25l1.323-1.5a5 5 0 0 1 -3.307 8.75z" fill="#7d8d9c"/><path d="m38 10h2v2h-2z" fill="#7d8d9c"/><path d="m21 4h2v2h-2z" fill="#7d8d9c"/><path d="m52 19h2v2h-2z" fill="#7d8d9c"/></g></svg>