<?xml version="1.0" encoding="iso-8859-1"?>
<!-- Generator: Adobe Illustrator 19.0.0, SVG Export Plug-In . SVG Version: 6.00 Build 0)  -->
<svg version="1.1" id="Capa_1" xmlns="http://www.w3.org/2000/svg" xmlns:xlink="http://www.w3.org/1999/xlink" x="0px" y="0px"
	 viewBox="0 0 512 512" style="enable-background:new 0 0 512 512;" xml:space="preserve">
<path style="fill:#FFBC36;" d="M255.5,0l-45,35.204V301h265.796l35.204-45C511.5,115.168,396.332,0,255.5,0z"/>
<path style="fill:#FF873C;" d="M210.5,301h234.549c3.439-14.473,5.451-29.491,5.451-45c0-107.52-87.48-195-195-195
	c-15.509,0-30.527,2.012-45,5.451V301z"/>
<path style="fill:#CF0404;" d="M210.5,301h171.707c5.043-14.145,8.293-29.145,8.293-45c0-74.443-60.557-135-135-135
	c-15.855,0-30.855,3.25-45,8.293V301z"/>
<path style="fill:#B80000;" d="M210.5,301h104.617c9.518-12.574,15.383-28.052,15.383-45c0-41.353-33.647-75-75-75
	c-16.948,0-32.426,5.865-45,15.383V301z"/>
<path style="fill:#69A8FF;" d="M255.5,88.299l-114.6,78.602l114.6,160.8l12.299,17.1L324.8,502.099
	C431.9,472.099,511.5,372.7,511.5,256h-256V88.299z"/>
<path style="fill:#3389FF;" d="M255.5,327.7l12.299,17.1L324.8,502.099C431.9,472.099,511.5,372.7,511.5,256h-256V327.7z"/>
<path style="fill:#69A8FF;" d="M278,391l-18.6,120.7c-1.199,0-2.701,0.3-3.9,0.3c-140.7,0-255-115.3-255-256
	c0-52.5,15.901-101.1,42.9-141.599c7.2,0.599,45-29.401,53.401-30L255.5,352.899L278,391z"/>
<path style="fill:#93D632;" d="M427.7,305.2c-6.599-14.101-20.7-17.401-33.3-20.101c-23.057-5.123-33.181-10.421-44.916-29.099
	H255.5c-8.347-2.346-48.27,2.468-60.3-27.599c-1.8-4.501-5.4-15.901,3.3-24.6c4.2-4.2,6.301-4.2,20.7,2.999
	c9.001,4.501,22.5,11.1,36.301,7.8V0C180.8,0,113.901,33.401,67.099,84.401c-8.399,9.598-16.5,19.499-23.699,30
	c7.2,0.599,15,0.599,23.401,0c9.899-0.3,33.3-1.201,37.2,2.699c0,0,1.5,6-9.901,24.3c-24.6,40.201-32.1,65.099-24.901,83.401
	C76.401,242.8,94.7,247.899,109.4,252.1c21,5.7,80.4,35.099,84,42.599V319.9c0,18.9,18.001,28.801,32.1,37.2
	c5.7,3.3,17.701,10.201,18.6,13.5c0,52.5,4.501,94.6,11.4,125.499c1.199,5.7,2.701,10.801,3.9,15.601c19.2-0.3,44.099-3.3,65.4-9.6
	c0-25.8,0-52.8-0.3-60.899c2.1-5.101,19.501-17.201,30.901-24.701C395.9,390.099,447.799,349.3,427.7,305.2z"/>
<path style="fill:#00C8C8;" d="M278,391l-18.6,120.7c-1.199,0-2.701,0.3-3.9,0.3V352.899L278,391z"/>
<path style="fill:#78B22A;" d="M394.4,285.099c-23.057-5.123-33.181-10.421-44.916-29.099H255.5v240.099
	c1.199,5.7,2.701,10.801,3.9,15.601c19.2-0.3,44.099-3.3,65.4-9.6c0-25.8,0-52.8-0.3-60.899c2.1-5.101,19.501-17.201,30.901-24.701
	C395.9,390.1,447.8,349.3,427.7,305.201C421.101,291.099,407,287.8,394.4,285.099z"/>
<g>
</g>
<g>
</g>
<g>
</g>
<g>
</g>
<g>
</g>
<g>
</g>
<g>
</g>
<g>
</g>
<g>
</g>
<g>
</g>
<g>
</g>
<g>
</g>
<g>
</g>
<g>
</g>
<g>
</g>
</svg>
