<svg height="512" viewBox="0 0 64 64" width="512" xmlns="http://www.w3.org/2000/svg"><g id="Fill_Outline" data-name="Fill Outline"><g id="Color"><g><path d="m55 35h-35l-13 26h35z" fill="#aae1f9"/><path d="m55 35-48 26h35z" fill="#57b7eb"/><g fill="#57b7eb"><path d="m27.12 35-13 26h-2.24l13-26z"/><path d="m32.12 35-13 26h-2.24l13-26z"/><path d="m37.12 35-13 26h-2.24l13-26z"/><path d="m42.12 35-13 26h-2.24l13-26z"/><path d="m47.12 35-13 26h-2.24l13-26z"/><path d="m52.12 35-13 26h-2.24l13-26z"/><path d="m52.12 35-13 26h-2.24l13-26z"/><path d="m47.12 35-13 26h-2.24l13-26z"/><path d="m42.12 35-13 26h-2.24l13-26z"/><path d="m37.12 35-13 26h-2.24l13-26z"/><path d="m32.12 35-13 26h-2.24l13-26z"/><path d="m27.12 35-13 26h-2.24l13-26z"/><path d="m22.12 35-13 26h-2.24l13-26z"/></g><path d="m53 29h4v32h-4z" fill="#ccc"/><path d="m55 42a2.99 2.99 0 0 1 2-2.816v-10.184h-4v32h2z" fill="#93999a"/><path d="m19 23h36a0 0 0 0 1 0 0v12a0 0 0 0 1 0 0h-36a6 6 0 0 1 -6-6 6 6 0 0 1 6-6z" fill="#ccc"/><circle cx="12" cy="12" fill="#f9e109" r="5"/><path d="m14 15a5 5 0 0 1 -5-5 4.95 4.95 0 0 1 .625-2.375 4.984 4.984 0 1 0 6.75 6.75 4.95 4.95 0 0 1 -2.375.625z" fill="#fcbc04"/><path d="m48.738 23a8 8 0 0 1 -7.738 6h-28a6 6 0 0 0 6 6h36v-12z" fill="#93999a"/><circle cx="55" cy="29" fill="#656b76" r="6"/></g></g><g id="Outline_copy" data-name="Outline copy"><g fill="#39519d"><path d="m62 29a7.008 7.008 0 0 0 -7-7h-28a1 1 0 0 0 0 2h23.11a6.979 6.979 0 0 0 0 10h-31.11a5 5 0 0 1 0-10h4a1 1 0 0 0 0-2h-4a7 7 0 0 0 0 14h4.382l-12 24h-2.764l10.543-21.085a1 1 0 0 0 -1.789-.895l-11.267 22.533a1 1 0 0 0 .895 1.447h35a1 1 0 0 0 .9-.553l9.1-18.211v17.764a1 1 0 0 0 1 1h4a1 1 0 0 0 1-1v-11a1 1 0 0 0 -2 0v10h-2v-24h1a7.026 7.026 0 0 0 1-.08v10.08a1 1 0 0 0 2 0v-10.685a7 7 0 0 0 4-6.315zm-33.382 31 12-24h2.764l-12 24zm-5 0 10.543-21.085a1 1 0 0 0 -1.789-.895l-10.99 21.98h-2.764l12-24h7.764l-12 24zm2-24h2.764l-12 24h-2.764zm26.382 2.764-10.618 21.236h-7.764l12-24h2.764l-10.447 20.894a1 1 0 0 0 1.789.9l10.894-21.794h1.382zm3-4.764a5 5 0 1 1 5-5 5.006 5.006 0 0 1 -5 5z"/><path d="m12 18a6 6 0 1 0 -6-6 6.006 6.006 0 0 0 6 6zm0-10a4 4 0 1 1 -4 4 4 4 0 0 1 4-4z"/><circle cx="12" cy="3" r="1"/><circle cx="12" cy="21" r="1"/><circle cx="3" cy="12" r="1"/><circle cx="21" cy="12" r="1"/><path d="m19.071 6.343a1 1 0 1 0 -1.414 0 1 1 0 0 0 1.414 0z"/><path d="m6.343 17.657a1 1 0 1 0 0 1.414 1 1 0 0 0 0-1.414z"/><path d="m6.343 6.343a1 1 0 1 0 -1.414 0 1 1 0 0 0 1.414 0z"/><path d="m17.657 17.657a1 1 0 1 0 1.414 0 1 1 0 0 0 -1.414 0z"/><path d="m54.343 14.657a2.98 2.98 0 0 1 -.879 2.121 1 1 0 1 0 1.414 1.414 5 5 0 0 0 0-7.07 3.006 3.006 0 0 1 0-4.244 1 1 0 1 0 -1.414-1.414 5.008 5.008 0 0 0 0 7.072 2.978 2.978 0 0 1 .879 2.121z"/><path d="m49.343 14.657a2.98 2.98 0 0 1 -.879 2.121 1 1 0 1 0 1.414 1.414 5 5 0 0 0 0-7.07 3.006 3.006 0 0 1 0-4.244 1 1 0 1 0 -1.414-1.414 5.008 5.008 0 0 0 0 7.072 2.978 2.978 0 0 1 .879 2.121z"/><path d="m44.343 14.657a2.98 2.98 0 0 1 -.879 2.121 1 1 0 1 0 1.414 1.414 5 5 0 0 0 0-7.07 3.006 3.006 0 0 1 0-4.244 1 1 0 1 0 -1.414-1.414 5.008 5.008 0 0 0 0 7.072 2.978 2.978 0 0 1 .879 2.121z"/><path d="m39.343 14.657a2.98 2.98 0 0 1 -.879 2.121 1 1 0 1 0 1.414 1.414 5 5 0 0 0 0-7.07 3.006 3.006 0 0 1 0-4.244 1 1 0 1 0 -1.414-1.414 5.008 5.008 0 0 0 0 7.072 2.978 2.978 0 0 1 .879 2.121z"/><path d="m34.343 14.657a2.98 2.98 0 0 1 -.879 2.121 1 1 0 1 0 1.414 1.414 5 5 0 0 0 0-7.07 3.006 3.006 0 0 1 0-4.244 1 1 0 1 0 -1.414-1.414 5.008 5.008 0 0 0 0 7.072 2.978 2.978 0 0 1 .879 2.121z"/><path d="m29.343 14.657a2.98 2.98 0 0 1 -.879 2.121 1 1 0 1 0 1.414 1.414 5 5 0 0 0 0-7.07 3.006 3.006 0 0 1 0-4.244 1 1 0 1 0 -1.414-1.414 5.008 5.008 0 0 0 0 7.072 2.978 2.978 0 0 1 .879 2.121z"/><path d="m18 27a1 1 0 0 0 1 1h25a1 1 0 0 0 0-2h-25a1 1 0 0 0 -1 1z"/><path d="m55 26a1 1 0 0 0 0 2 1 1 0 0 1 1 1 1 1 0 0 0 2 0 3 3 0 0 0 -3-3z"/></g></g></g></svg>