<svg id="Capa_1" enable-background="new 0 0 512 512" height="512" viewBox="0 0 512 512" width="512" xmlns="http://www.w3.org/2000/svg"><g><g><g><g><path d="m306.091 496.56h-100.182l20.037-239.032h60.108z" fill="#fbf4f4"/><path d="m256 496.56h50.091l-20.037-239.032h-30.054z" fill="#e2e9ee"/></g><g><path d="m209.78 450.387h92.44l-2.513-29.988h-87.414z" fill="#4e6da0"/><path d="m256 450.387h46.22l-2.513-29.988h-43.707z" fill="#2e3e6e"/></g></g><g><g><path d="m257.01 261.267-26.375-53.279c-.766-1.548-2.646-2.183-4.197-1.419l-187.316 92.314c-1.552.765-2.188 2.64-1.422 4.188 15.333 30.974 52.928 43.681 83.97 28.382l133.918-65.998c1.552-.764 2.189-2.639 1.422-4.188z" fill="#e2e9ee"/><path d="m254.99 261.267 26.375-53.279c.766-1.548 2.646-2.183 4.197-1.419l187.317 92.314c1.552.765 2.188 2.64 1.422 4.188-15.333 30.974-52.927 43.681-83.97 28.382l-133.918-65.998c-1.553-.764-2.19-2.639-1.423-4.188z" fill="#bbd0d5"/><g><path d="m288.912 215.154h-65.824v-208.451c0-3.455 2.801-6.256 6.256-6.256h.119c32.833 0 59.449 26.616 59.449 59.449z" fill="#e2e9ee"/><path d="m256 6.727v208.427h32.912v-155.284c0-23.259-13.401-43.384-32.912-53.143z" fill="#bbd0d5"/></g></g><g><path d="m256 276.638c-23.648 0-42.889-19.196-42.891-42.792-.001-11.433 4.46-22.18 12.56-30.264 8.1-8.083 18.871-12.536 30.327-12.537h.004c11.456 0 22.224 4.45 30.326 12.532 8.101 8.082 12.564 18.829 12.565 30.26.002 23.597-19.235 42.796-42.883 42.801z" fill="#bbd0d5"/><path d="m286.326 203.578c-8.101-8.082-18.87-12.532-30.325-12.532v85.592h.008c23.648-.004 42.885-19.204 42.883-42.801-.003-11.43-4.465-22.177-12.566-30.259z" fill="#8c9eac"/></g></g></g><g><path d="m496.973 511.554h-481.946c-8.299 0-15.027-6.713-15.027-14.994s6.728-14.994 15.027-14.994h481.946c8.299 0 15.027 6.713 15.027 14.994s-6.728 14.994-15.027 14.994z" fill="#9cd6f4"/><path d="m496.973 481.566h-240.973v29.988h240.973c8.299 0 15.027-6.713 15.027-14.994s-6.728-14.994-15.027-14.994z" fill="#7fa6fb"/></g></g></svg>